<?xml version="1.0" standalone="no"?>
<!DOCTYPE svg PUBLIC "-//W3C//DTD SVG 20010904//EN"
 "http://www.w3.org/TR/2001/REC-SVG-20010904/DTD/svg10.dtd">
<svg version="1.0" xmlns="http://www.w3.org/2000/svg"
 width="512.000000pt" height="512.000000pt" viewBox="0 0 512.000000 512.000000"
 preserveAspectRatio="xMidYMid meet">

<g transform="translate(0.000000,512.000000) scale(0.100000,-0.100000)"
fill="#cbcbcb" stroke="none">
<path d="M3710 4371 c-35 -50 -49 -96 -65 -208 -16 -117 -30 -164 -81 -290
-19 -45 -34 -92 -34 -105 0 -13 -5 -29 -12 -36 -6 -6 -13 -22 -14 -34 -3 -24
-26 -114 -46 -182 -18 -58 -57 -106 -128 -156 -85 -61 -140 -110 -140 -125 0
-6 -9 -20 -20 -30 -12 -11 -31 -36 -42 -57 -12 -21 -25 -38 -30 -38 -4 0 -8
-8 -8 -17 0 -9 -6 -24 -14 -32 -17 -20 -36 -107 -36 -165 0 -26 10 -62 25 -92
27 -52 26 -74 -10 -159 -37 -87 -100 -391 -110 -525 -6 -87 -10 -103 -57 -199
-36 -74 -48 -106 -39 -109 7 -2 -4 -12 -26 -22 -71 -32 -147 -122 -199 -239
-37 -82 -54 -100 -54 -58 0 13 -5 28 -10 33 -6 6 -15 56 -21 110 -5 54 -13
108 -18 119 -47 106 -64 136 -86 152 -64 44 -66 48 -99 253 -15 96 -13 100 47
100 46 0 105 23 113 45 6 15 -15 83 -35 114 -8 12 -14 12 -44 -2 -44 -21 -47
-21 -47 3 0 18 3 19 20 10 15 -8 20 -8 20 3 0 18 -21 37 -40 37 -9 0 -25 9
-35 19 -25 29 -75 132 -75 157 0 12 -7 24 -15 28 -8 3 -15 13 -15 23 0 10 -9
29 -20 43 -11 14 -20 34 -20 46 0 12 -13 39 -29 62 -17 22 -44 66 -60 99 -17
32 -35 65 -40 73 -14 24 -60 128 -90 207 -7 17 -21 39 -32 49 -10 9 -19 23
-19 30 0 24 -64 100 -117 139 -100 73 -132 127 -100 169 12 17 26 19 95 18 73
-2 83 0 110 23 35 29 52 90 52 183 0 101 -41 126 -163 98 -83 -19 -136 -46
-207 -104 -30 -24 -65 -49 -77 -55 -13 -6 -23 -15 -23 -21 -1 -6 -14 -22 -30
-36 -17 -13 -30 -28 -30 -33 0 -5 -11 -21 -25 -35 -45 -49 -115 -204 -115
-254 0 -11 -7 -26 -15 -35 -12 -12 -13 -18 -4 -29 9 -11 8 -18 -5 -32 -9 -10
-16 -28 -16 -40 0 -12 -5 -31 -12 -42 -10 -15 -9 -22 6 -39 17 -19 18 -22 2
-45 -20 -31 -21 -70 -1 -86 10 -8 12 -17 5 -30 -10 -18 4 -85 21 -106 5 -6 7
-19 3 -27 -3 -9 3 -28 15 -43 12 -15 21 -31 21 -36 0 -6 9 -22 20 -38 11 -15
17 -29 15 -32 -3 -2 4 -30 15 -61 11 -31 20 -63 20 -72 0 -8 4 -15 9 -15 5 0
12 -11 15 -24 8 -32 96 -175 149 -245 23 -29 61 -84 84 -122 40 -65 166 -245
225 -320 15 -20 28 -48 28 -62 0 -13 6 -30 14 -36 12 -10 11 -21 -2 -72 -11
-45 -12 -69 -5 -94 7 -23 7 -37 0 -44 -7 -7 -7 -14 1 -23 10 -13 4 -58 -18
-131 -15 -48 31 -187 61 -187 12 0 40 29 117 118 47 55 57 62 90 62 20 0 75
10 122 21 144 34 140 34 220 -6 60 -30 78 -35 92 -26 33 21 91 10 81 -15 -3
-8 0 -14 6 -14 6 0 8 -6 5 -13 -9 -24 117 -132 170 -147 61 -17 158 -7 202 21
37 22 104 99 104 117 0 7 13 24 30 38 35 31 56 94 64 184 8 106 34 152 156
275 59 61 128 142 153 180 65 103 210 398 241 489 32 97 56 237 56 331 0 139
-44 321 -100 409 -97 152 -103 215 -46 449 32 128 52 258 66 412 5 66 17 142
25 169 19 64 19 102 -1 110 -35 13 -63 5 -84 -23z m-1250 -1998 c-1 -11 -26
-43 -34 -43 -8 0 -8 35 1 43 9 9 33 9 33 0z m-60 -13 c0 -5 -4 -10 -10 -10 -5
0 -10 5 -10 10 0 6 5 10 10 10 6 0 10 -4 10 -10z m380 -932 c0 -7 3 -24 7 -38
l6 -25 -22 20 c-13 11 -27 28 -32 37 -8 15 -5 18 16 18 14 0 25 -6 25 -12z
m120 -184 c0 -2 -14 -4 -31 -4 -16 0 -28 4 -25 9 5 8 56 3 56 -5z"/>
<path d="M2390 1331 c0 -5 -26 -36 -58 -68 -32 -32 -71 -80 -87 -108 -16 -27
-46 -69 -67 -92 -39 -44 -47 -66 -26 -79 7 -5 4 -10 -10 -15 -12 -5 -22 -17
-22 -27 0 -48 33 -92 140 -187 153 -136 188 -158 263 -163 57 -4 60 -4 54 17
-3 14 -1 21 10 21 20 0 188 170 198 200 4 14 17 34 28 46 28 29 56 102 56 147
1 34 -6 47 -61 104 -75 78 -148 133 -176 133 -11 0 -23 7 -26 15 -10 27 -106
65 -163 65 -29 0 -53 -4 -53 -9z m-132 -287 c2 -1 -8 -18 -22 -38 -13 -20 -27
-32 -30 -27 -4 5 -2 12 4 16 7 4 7 13 -1 26 -15 29 6 55 30 37 9 -7 17 -13 19
-14z m-78 -98 c0 -3 -4 -8 -10 -11 -5 -3 -10 -1 -10 4 0 6 5 11 10 11 6 0 10
-2 10 -4z m80 -11 c0 -8 -2 -15 -4 -15 -2 0 -6 7 -10 15 -3 8 -1 15 4 15 6 0
10 -7 10 -15z m-16 -84 c-2 -2 -11 -1 -20 3 -14 5 -14 9 -3 22 12 14 14 14 20
-3 3 -10 5 -20 3 -22z m137 -41 c5 0 9 -5 9 -10 0 -7 -6 -7 -19 0 -16 8 -20 6
-23 -7 -2 -13 -7 -11 -22 13 -16 24 -17 27 -2 15 13 -11 20 -11 29 -2 9 9 9
14 -3 21 -13 9 -13 11 0 20 12 8 16 4 18 -20 2 -17 7 -30 13 -30z m339 -25 c0
-16 -27 -32 -37 -22 -3 4 -3 13 0 22 8 20 37 20 37 0z m-55 -55 c-3 -5 -15
-10 -26 -10 -10 0 -19 -5 -19 -12 0 -6 -3 -9 -6 -5 -14 13 7 37 31 37 15 0 24
-4 20 -10z"/>
</g>
</svg>
